<svg xmlns="http://www.w3.org/2000/svg" id="uuid-e23ab4d0-fdf5-45c7-81b4-40df0e0e8e97" data-name="Ebene 2" width="90mm"
  height="82mm" viewBox="0 0 255.12 232.44">
  <g id="uuid-1b664247-f506-4f29-8ad3-bdc67f5f60b6" data-name="Ebene 5">
    <rect width="255.12" height="232.44" style="fill: none;" />
    <g>
      <polygon
        points="139.69 117.68 139.69 105.16 112.37 105.16 112.37 117.68 123.76 117.68 124.03 117.68 124.03 134.69 131.57 139.12 133.6 135.67 128.03 132.4 128.03 117.68 139.69 117.68"
        style="fill: #e0b43b;" />
      <polygon points="193.15 94.99 197.15 92.7 197.15 64.34 172.48 50.17 168.46 52.48 193.15 66.65 193.15 94.99"
        style="fill: #e0b43b;" />
      <polygon points="93.49 152.22 68.79 138.04 68.79 109.72 64.79 112.01 64.79 140.35 89.47 154.52 93.49 152.22"
        style="fill: #e0b43b;" />
      <polygon points="100.27 160.73 100.64 160.94 101 160.3 100.27 160.73" style="fill: #e0b43b;" />
      <polygon
        points="126.04 34.84 93.48 53.53 93.48 58.15 126.04 39.46 183.28 72.32 183.28 131.32 187.28 129.02 187.28 70.01 126.04 34.84"
        style="fill: #e0b43b;" />
      <polygon
        points="126.04 46.18 74.66 75.68 74.66 134.68 99.87 149.16 112.54 170.96 139.53 170.96 141.86 166.96 114.84 166.96 102.79 146.22 78.66 132.37 78.66 78 126.04 50.8 173.4 77.99 173.4 132.37 148.71 146.55 152.73 148.86 177.4 134.69 177.4 75.68 126.04 46.18"
        style="fill: #e0b43b;" />
      <polygon points="136.91 175.47 115.16 175.47 117.48 179.47 134.59 179.47 136.91 175.47" style="fill: #e0b43b;" />
    </g>
  </g>
</svg>
<g xmlns="http://www.w3.org/2000/svg" id="uuid-1b664247-f506-4f29-8ad3-bdc67f5f60b6" data-name="Ebene 5">
  <rect width="255.12" height="232.44" style="fill: none;" />
  <g>
    <polygon
      points="139.69 117.68 139.69 105.16 112.37 105.16 112.37 117.68 123.76 117.68 124.03 117.68 124.03 134.69 131.57 139.12 133.6 135.67 128.03 132.4 128.03 117.68 139.69 117.68"
      style="fill: #e0b43b;" />
    <polygon points="193.15 94.99 197.15 92.7 197.15 64.34 172.48 50.17 168.46 52.48 193.15 66.65 193.15 94.99"
      style="fill: #e0b43b;" />
    <polygon points="93.49 152.22 68.79 138.04 68.79 109.72 64.79 112.01 64.79 140.35 89.47 154.52 93.49 152.22"
      style="fill: #e0b43b;" />
    <polygon points="100.27 160.73 100.64 160.94 101 160.3 100.27 160.73" style="fill: #e0b43b;" />
    <polygon
      points="126.04 34.84 93.48 53.53 93.48 58.15 126.04 39.46 183.28 72.32 183.28 131.32 187.28 129.02 187.28 70.01 126.04 34.84"
      style="fill: #e0b43b;" />
    <polygon
      points="126.04 46.18 74.66 75.68 74.66 134.68 99.87 149.16 112.54 170.96 139.53 170.96 141.86 166.96 114.84 166.96 102.79 146.22 78.66 132.37 78.66 78 126.04 50.8 173.4 77.99 173.4 132.37 148.71 146.55 152.73 148.86 177.4 134.69 177.4 75.68 126.04 46.18"
      style="fill: #e0b43b;" />
    <polygon points="136.91 175.47 115.16 175.47 117.48 179.47 134.59 179.47 136.91 175.47" style="fill: #e0b43b;" />
  </g>
</g>
<svg xmlns="http://www.w3.org/2000/svg" id="uuid-e23ab4d0-fdf5-45c7-81b4-40df0e0e8e97" data-name="Ebene 2" width="90mm"
  height="82mm" viewBox="0 0 255.12 232.44">
  <g id="uuid-1b664247-f506-4f29-8ad3-bdc67f5f60b6" data-name="Ebene 5">
    <rect width="255.12" height="232.44" style="fill: none;" />
    <g>
      <polygon
        points="139.69 117.68 139.69 105.16 112.37 105.16 112.37 117.68 123.76 117.68 124.03 117.68 124.03 134.69 131.57 139.12 133.6 135.67 128.03 132.4 128.03 117.68 139.69 117.68"
        style="fill: #e0b43b;" />
      <polygon points="193.15 94.99 197.15 92.7 197.15 64.34 172.48 50.17 168.46 52.48 193.15 66.65 193.15 94.99"
        style="fill: #e0b43b;" />
      <polygon points="93.49 152.22 68.79 138.04 68.79 109.72 64.79 112.01 64.79 140.35 89.47 154.52 93.49 152.22"
        style="fill: #e0b43b;" />
      <polygon points="100.27 160.73 100.64 160.94 101 160.3 100.27 160.73" style="fill: #e0b43b;" />
      <polygon
        points="126.04 34.84 93.48 53.53 93.48 58.15 126.04 39.46 183.28 72.32 183.28 131.32 187.28 129.02 187.28 70.01 126.04 34.84"
        style="fill: #e0b43b;" />
      <polygon
        points="126.04 46.18 74.66 75.68 74.66 134.68 99.87 149.16 112.54 170.96 139.53 170.96 141.86 166.96 114.84 166.96 102.79 146.22 78.66 132.37 78.66 78 126.04 50.8 173.4 77.99 173.4 132.37 148.71 146.55 152.73 148.86 177.4 134.69 177.4 75.68 126.04 46.18"
        style="fill: #e0b43b;" />
      <polygon points="136.91 175.47 115.16 175.47 117.48 179.47 134.59 179.47 136.91 175.47" style="fill: #e0b43b;" />
    </g>
  </g>
</svg>